arm26_states
version=1
nRows=38
nColumns=17
inDegrees=yes

# SIMM Motion File Header:
name arm26_states
datacolumns 17
datarows 38
otherdata 1
range 0.49663251 0.61126256
endheader
time	r_shoulder_elev	r_elbow_flex	r_shoulder_elev_u	r_elbow_flex_u	TRIlong.activation	TRIlong.fiber_length	TRIlat.activation	TRIlat.fiber_length	TRImed.activation	TRImed.fiber_length	BIClong.activation	BIClong.fiber_length	BICshort.activation	BICshort.fiber_length	BRA.activation	BRA.fiber_length
      0.49663251	    -10.51130082	     73.51715560	      2.36491573	     31.81057893	      0.00001530	      0.15785773	      0.02629199	      0.09846331	      0.02629199	      0.09346432	      0.11841840	      0.11518195	      0.01501994	      0.11344039	      0.00102374	      0.07491259
      0.50014930	    -10.50382038	     73.62770374	      1.88828819	     31.06448275	      0.00001520	      0.15789516	      0.02666733	      0.09849695	      0.02666733	      0.09349811	      0.11868903	      0.11508324	      0.01474511	      0.11335698	      0.00098240	      0.07487477
      0.50324839	    -10.49862928	     73.72297740	      1.46037763	     30.42143821	      0.00001512	      0.15793450	      0.02701839	      0.09852554	      0.02701839	      0.09352684	      0.11892827	      0.11499843	      0.01450449	      0.11328564	      0.00095402	      0.07484200
      0.50634748	    -10.49477170	     73.81628882	      1.02874523	     29.80166995	      0.00001504	      0.15796267	      0.02737250	      0.09855330	      0.02737250	      0.09355474	      0.11917239	      0.11491561	      0.01426159	      0.11321631	      0.00092630	      0.07480984
      0.50944658	    -10.49226032	     73.90769927	      0.59074501	     29.19064416	      0.00001496	      0.15799934	      0.02772813	      0.09858034	      0.02772813	      0.09358194	      0.11942079	      0.11483475	      0.01401609	      0.11314896	      0.00089902	      0.07477830
      0.51254567	    -10.49111194	     73.99724373	      0.15017415	     28.60134376	      0.00001487	      0.15802444	      0.02807711	      0.09860675	      0.02807711	      0.09360851	      0.11967974	      0.11475582	      0.01376223	      0.11308363	      0.00086972	      0.07474738
      0.51564476	    -10.49133624	     74.08497995	     -0.29607818	     28.01960874	      0.00001479	      0.15805856	      0.02841931	      0.09863261	      0.02841931	      0.09363453	      0.11994827	      0.11467876	      0.01349906	      0.11302038	      0.00083793	      0.07471711
      0.51874385	    -10.49294813	     74.17094093	     -0.74421629	     27.45994182	      0.00001470	      0.15808050	      0.02875807	      0.09865796	      0.02875807	      0.09366004	      0.12022463	      0.11460353	      0.01322724	      0.11295923	      0.00080412	      0.07468746
      0.52184295	    -10.49595543	     74.25518537	     -1.19765560	     26.90742379	      0.00001462	      0.15811223	      0.02909885	      0.09868277	      0.02909885	      0.09368501	      0.12050907	      0.11453012	      0.01294731	      0.11290016	      0.00076933	      0.07465841
      0.52494204	    -10.50037161	     74.33774530	     -1.65223543	     26.37738755	      0.00001453	      0.15813091	      0.02944140	      0.09870704	      0.02944140	      0.09370944	      0.12079960	      0.11445848	      0.01265987	      0.11284315	      0.00073370	      0.07462994
      0.52804113	    -10.50620224	     74.41867937	     -2.11160040	     25.85328346	      0.00001445	      0.15816041	      0.02978938	      0.09873077	      0.02978938	      0.09373332	      0.12109610	      0.11438859	      0.01236566	      0.11278817	      0.00069813	      0.07460203
      0.53114022	    -10.51345878	     74.49801612	     -2.57111548	     25.35150679	      0.00001436	      0.15817576	      0.03014530	      0.09875392	      0.03014530	      0.09375664	      0.12139842	      0.11432044	      0.01206537	      0.11273518	      0.00066347	      0.07457465
      0.53423932	    -10.52214384	     74.57581219	     -3.03474439	     24.85354344	      0.00001427	      0.15820318	      0.03050760	      0.09877652	      0.03050760	      0.09377939	      0.12170509	      0.11425399	      0.01175956	      0.11268414	      0.00062971	      0.07454778
      0.53733841	    -10.53226641	     74.65209023	     -3.49732402	     24.37733963	      0.00001418	      0.15821509	      0.03088134	      0.09879854	      0.03088134	      0.09380158	      0.12201595	      0.11418923	      0.01145019	      0.11263500	      0.00059744	      0.07452141
      0.54043750	    -10.54382561	     74.72690360	     -3.96327118	     23.90218046	      0.00001410	      0.15824063	      0.03126575	      0.09881998	      0.03126575	      0.09382319	      0.12233021	      0.11412613	      0.01113808	      0.11258770	      0.00056678	      0.07449551
      0.54353659	    -10.55682767	     74.80026736	     -4.42680517	     23.44799734	      0.00001401	      0.15824899	      0.03168040	      0.09884083	      0.03168040	      0.09384420	      0.12263722	      0.11406469	      0.01083474	      0.11254213	      0.00054008	      0.07447007
      0.54629309	    -10.56960069	     74.86434225	     -4.84091907	     23.04172950	      0.00001393	      0.15826878	      0.03214601	      0.09885857	      0.03214601	      0.09386211	      0.12287195	      0.11401149	      0.01061352	      0.11250254	      0.00052854	      0.07444774
      0.54904958	    -10.58351173	     74.92730854	     -5.25182827	     22.64478428	      0.00001385	      0.15827826	      0.03268571	      0.09887533	      0.03268571	      0.09387904	      0.12307709	      0.11395974	      0.01043835	      0.11246325	      0.00053115	      0.07442562
      0.55243589	    -10.60214668	     75.00315942	     -5.75378184	     22.15173309	      0.00001375	      0.15829510	      0.03338299	      0.09889465	      0.03338299	      0.09389861	      0.12331970	      0.11389815	      0.01025963	      0.11241512	      0.00055969	      0.07439861
      0.55582220	    -10.62247163	     75.07733569	     -6.24867908	     21.65986997	      0.00001365	      0.15830228	      0.03401379	      0.09891318	      0.03401379	      0.09391743	      0.12360200	      0.11383860	      0.01006457	      0.11236785	      0.00056124	      0.07437218
      0.55865387	    -10.64074809	     75.13807522	     -6.65958125	     21.23861934	      0.00001356	      0.15831692	      0.03450033	      0.09892844	      0.03450033	      0.09393295	      0.12386226	      0.11379024	      0.00988716	      0.11232962	      0.00055586	      0.07435071
      0.56148554	    -10.66018111	     75.19762521	     -7.06509512	     20.82214504	      0.00001348	      0.15832185	      0.03496828	      0.09894358	      0.03496828	      0.09394833	      0.12413792	      0.11374314	      0.00970022	      0.11229280	      0.00054761	      0.07432970
      0.56431721	    -10.68075816	     75.25599381	     -7.46797485	     20.40333138	      0.00001339	      0.15833080	      0.03542800	      0.09895855	      0.03542800	      0.09396355	      0.12442459	      0.11369727	      0.00950616	      0.11225748	      0.00053773	      0.07430913
      0.56818209	    -10.71067471	     75.33375614	     -8.01166919	     19.84098919	      0.00001327	      0.15833518	      0.03604502	      0.09897863	      0.03604502	      0.09398394	      0.12482981	      0.11363667	      0.00922994	      0.11221173	      0.00052179	      0.07428174
      0.57104500	    -10.73418493	     75.38996450	     -8.41211962	     19.42526672	      0.00001318	      0.15834448	      0.03649191	      0.09899321	      0.03649191	      0.09399875	      0.12514346	      0.11359325	      0.00901254	      0.11217972	      0.00050804	      0.07426196
      0.57390792	    -10.75883630	     75.44499610	     -8.80837223	     19.02108115	      0.00001309	      0.15834506	      0.03693156	      0.09900754	      0.03693156	      0.09401330	      0.12546670	      0.11355107	      0.00878395	      0.11214939	      0.00049271	      0.07424260
      0.57736843	    -10.79014248	     75.50998251	     -9.28483652	     18.53754749	      0.00001298	      0.15835152	      0.03745207	      0.09902450	      0.03745207	      0.09403052	      0.12587023	      0.11350173	      0.00849063	      0.11211501	      0.00047218	      0.07421976
      0.58044972	    -10.81939949	     75.56645732	     -9.70430140	     18.12269192	      0.00001289	      0.15834797	      0.03789960	      0.09903930	      0.03789960	      0.09404553	      0.12624582	      0.11345928	      0.00820743	      0.11208661	      0.00045212	      0.07419994
      0.58353100	    -10.84994525	     75.62166560	    -10.12230840	     17.71184168	      0.00001279	      0.15835301	      0.03833605	      0.09905382	      0.03833605	      0.09406027	      0.12663289	      0.11341822	      0.00790467	      0.11206039	      0.00043053	      0.07418057
      0.58661229	    -10.88177298	     75.67562975	    -10.53540717	     17.31902245	      0.00001269	      0.15834697	      0.03877994	      0.09906804	      0.03877994	      0.09407470	      0.12702267	      0.11337854	      0.00759104	      0.11203632	      0.00040873	      0.07416165
      0.58969357	    -10.91486956	     75.72839634	    -10.94680966	     16.93057967	      0.00001260	      0.15834980	      0.03924094	      0.09908186	      0.03924094	      0.09408872	      0.12741018	      0.11334024	      0.00727318	      0.11201420	      0.00038769	      0.07414315
      0.59277485	    -10.94922673	     75.77998665	    -11.35255551	     16.55918845	      0.00001250	      0.15834141	      0.03971541	      0.09909522	      0.03971541	      0.09410229	      0.12779575	      0.11330334	      0.00695171	      0.11199388	      0.00036740	      0.07412505
      0.59585614	    -10.98482856	     75.83044206	    -11.75558868	     16.18982685	      0.00001240	      0.15834202	      0.04020933	      0.09910812	      0.04020933	      0.09411538	      0.12817701	      0.11326783	      0.00663080	      0.11197520	      0.00034820	      0.07410733
      0.59893742	    -11.02166334	     75.87977555	    -12.15173149	     15.83453347	      0.00001231	      0.15833143	      0.04071990	      0.09912053	      0.04071990	      0.09412800	      0.12855441	      0.11323372	      0.00631145	      0.11195805	      0.00033010	      0.07408999
      0.60201870	    -11.05971118	     75.92801857	    -12.54383192	     15.47791198	      0.00001221	      0.15832982	      0.04124605	      0.09913245	      0.04124605	      0.09414013	      0.12892761	      0.11320098	      0.00599506	      0.11194232	      0.00031303	      0.07407301
      0.60509999	    -11.09895621	     75.97517358	    -12.92772203	     15.13182893	      0.00001211	      0.15831716	      0.04179422	      0.09914389	      0.04179422	      0.09415178	      0.12929347	      0.11316963	      0.00568650	      0.11192789	      0.00029692	      0.07405640
      0.60818127	    -11.13937446	     76.02126119	    -13.30619020	     14.78104747	      0.00001202	      0.15831332	      0.04235925	      0.09915483	      0.04235925	      0.09416295	      0.12965367	      0.11313964	      0.00538557	      0.11191462	      0.00028170	      0.07404014
      0.61126256	    -11.18094584	     76.06627332	    -13.67512745	     14.43707940	      0.00001193	      0.15829874	      0.04299730	      0.09916521	      0.04299730	      0.09417356	      0.12998247	      0.11311103	      0.00512223	      0.11190223	      0.00027063	      0.07402423
